<?xml version="1.0" encoding="UTF-8" standalone="no"?>
<svg
   width="456"
   height="456"
   viewBox="0 0 456 456"
   version="1.1"
   id="svg453"
   sodipodi:docname="icon.svg"
   inkscape:version="1.4.3 (0d15f75, 2025-12-25)"
   xmlns:inkscape="http://www.inkscape.org/namespaces/inkscape"
   xmlns:sodipodi="http://sodipodi.sourceforge.net/DTD/sodipodi-0.dtd"
   xmlns="http://www.w3.org/2000/svg"
   xmlns:svg="http://www.w3.org/2000/svg">
  <defs
     id="defs457" />
  <sodipodi:namedview
     id="namedview455"
     pagecolor="#ffffff"
     bordercolor="#000000"
     borderopacity="0.25"
     inkscape:showpageshadow="2"
     inkscape:pageopacity="0.0"
     inkscape:pagecheckerboard="true"
     inkscape:deskcolor="#d1d1d1"
     showgrid="false"
     inkscape:zoom="45.254834"
     inkscape:cx="423.95471"
     inkscape:cy="455.07846"
     inkscape:window-width="1920"
     inkscape:window-height="991"
     inkscape:window-x="-9"
     inkscape:window-y="-9"
     inkscape:window-maximized="1"
     inkscape:current-layer="svg453"
     labelstyle="default" />
  <path
     id="rect2-9"
     style="fill:#cccccc;stroke:#ffc4ff;stroke-width:1.53824;stroke-opacity:0"
     d="m -0.95507812,-2.9023438 v 2.46093755 C 0.33379358,-1.2714469 1.6286688,-2.0924109 2.9296875,-2.9023438 Z M 74.923828,0.4140625 C 69.8353,1.7681873 64.679707,2.8256417 59.503906,3.8144531 c -1.9995,0.086084 -3.996795,0.2777945 -5.998047,0.2578125 -3.098063,-0.030934 -6.17366,-0.6107912 -9.271484,-0.6601562 -2.552523,-0.040676 -5.101138,0.1630102 -7.642578,0.453125 0.678308,1.0945209 1.359613,2.1868326 2.095703,3.2324218 -1.131323,1.1954659 -2.152868,2.5032789 -3.392578,3.5859378 -1.285782,1.122893 -5.290337,3.193751 -6.578125,3.841797 -3.968307,1.996952 -8.042191,3.67556 -12.189453,5.253906 -1.52109,0.516475 -3.265558,1.025039 -5.054688,1.324219 -1.8535202,1.126326 -3.6684497,2.31546 -5.4218748,3.601562 -0.09156,0.06716 -0.1823569,0.132849 -0.2734374,0.197266 -2.2141535,2.230061 -4.4192145,4.47001 -6.73242192,6.59375 V 415.91406 c 0.34186191,-0.12541 0.69078027,-0.22206 1.05273437,-0.26562 0.2745576,-0.0331 0.54157041,-0.048 0.80273437,-0.0469 3.91745968,0.0175 6.32815608,3.74952 7.20507818,7.17383 0.5211845,2.14314 1.1473435,4.25949 1.7128906,6.39063 0.3925376,0.26958 0.7768946,0.55161 1.1523436,0.8457 2.979693,0.92113 5.789391,2.28584 8.476563,3.94531 3.565105,2.24319 6.253583,5.30755 8.498046,8.79297 0.457641,0.37076 0.915802,0.74027 1.376954,1.10547 1.063673,0.89814 2.035404,1.87033 2.916015,2.91406 1.795939,1.54857 3.387611,3.24661 4.730469,5.37109 1.626017,2.57248 1.83405,4.86305 1.216797,6.51368 0.149195,1.00487 0.03085,1.91254 -0.294922,2.66797 H 74.923828 Z M -0.55273438,427.57227 c -0.14301242,0.18626 -0.26682201,0.38792 -0.40234374,0.58007 v 0.004 c 0.14015421,-0.16736 0.28376712,-0.32477 0.43554687,-0.46094 -0.0111962,-0.0412 -0.0220324,-0.0819 -0.0332031,-0.12304 z" />
  <path
     id="rect1"
     style="fill:#cccccc;stroke:#ffc4ff;stroke-width:1.3073;stroke-opacity:0"
     d="m 2.6621094,179.80078 v 252.51563 c 0.5574116,-0.53627 1.110681,-1.07538 1.6425781,-1.63282 1.0114802,0.65649 2.0851981,1.22548 3.0332031,1.97071 0.2815013,0.22128 0.7902655,0.80248 1.3066406,1.42968 0.056618,-0.0216 0.1132641,-0.043 0.1699219,-0.0645 4.4490609,-1.55197 9.1218709,-1.26693 12.7812499,1.95899 0.659174,0.58109 1.179533,1.30191 1.769531,1.95312 0.831393,1.26361 1.485734,2.50843 1.988282,3.75586 1.337848,0.36486 2.673212,0.79249 4.011718,1.28711 3.38358,1.08657 8.288847,2.08983 9.232422,6.21875 0.235389,1.03003 -0.127206,2.10943 -0.191406,3.16406 -0.555472,1.30373 -1.033769,2.6148 -1.347656,3.99024 H 419.21875 c 1.48507,-2.0808 3.0631,-3.9522 3.83398,-4.95313 7.20664,-9.04733 14.59436,-17.95681 22.53516,-26.37109 2.35158,-2.29749 4.63663,-4.74354 7.36133,-6.61914 0.58513,-0.40279 1.15624,-0.87121 1.83398,-1.08399 0.34003,-0.10675 0.69797,-0.252 1.06055,-0.38476 V 179.80078 Z M 443.17969,442.03711 c -1.7211,2.00073 -3.42209,4.01961 -5.10547,6.05273 0.11615,-0.075 0.23286,-0.14873 0.34961,-0.22265 0.60124,-0.41666 1.20229,-0.83461 1.80273,-1.25196 0.024,-0.0296 0.0466,-0.06 0.0703,-0.0898 1.22712,-1.17247 2.46625,-2.33237 3.71289,-3.48437 -0.32827,-0.27893 -0.60805,-0.61637 -0.83008,-1.00391 z m -413.634768,6.6582 c -0.550028,0.25506 -0.662551,0.83757 -0.564453,1.50781 0.188022,-0.50227 0.379811,-1.00347 0.564453,-1.50781 z m 426.298828,7.20508 c -0.54365,0.14729 -1.0863,0.2965 -1.62891,0.44727 h 1.36524 c 0.0791,-0.0978 0.1668,-0.2066 0.26367,-0.32618 z" />
  <path
     id="rect2"
     style="fill:#cccccc;stroke:#ffc4ff;stroke-width:1.53824;stroke-opacity:0"
     d="m 381.09961,-8.5 v 464.22461 h 16.62695 c 0.28324,-0.44354 0.5802,-0.87669 0.92188,-1.27539 1.18185,-1.37909 3.45231,-2.85893 4.90234,-3.83399 1.87106,-1.25817 3.79204,-2.4294 5.73242,-3.56835 0.0888,-0.11382 0.17596,-0.22789 0.26172,-0.34376 1.9464,-1.99004 4.58693,-3.67882 7.39063,-4.10546 1.7447,-1.01145 3.49065,-2.01967 5.23633,-3.0293 0.33418,-0.45813 0.66927,-0.91446 1.00781,-1.36914 2.4842,-3.80601 5.46417,-7.10212 9.16406,-9.73633 3.1789,-1.91297 5.4475,-2.1494 8.42383,0.51953 0.63756,-0.22236 1.27853,-0.397 1.92187,-0.50976 1.43663,-2.36707 2.89812,-4.72044 4.34766,-7.07813 1.70885,-2.77946 3.8002,-4.02227 5.60742,-4.12695 3.45016,-0.19985 5.86676,3.74769 2.61524,9.06054 -0.11546,0.18868 -0.23195,0.37594 -0.34766,0.56446 0.67029,-0.52771 1.3652,-1.02506 2.06641,-1.44141 V 38.767578 c -0.4012,-0.350838 -0.80408,-0.706992 -1.19727,-1.058594 v 0.002 l -0.002,0.002 -0.002,0.002 v 0.002 c -0.94974,0.166145 -1.90127,0.671956 -2.84961,0.498047 -0.80549,-0.14771 -2.3689,-2.327685 -2.77734,-2.875 -1.22752,-1.644896 -2.33996,-3.378016 -3.50586,-5.066406 -1.20027,-1.723974 -2.38578,-3.457349 -3.5625,-5.197266 -0.59182,-0.654742 -1.1781,-1.315864 -1.75586,-1.982422 -0.0433,-0.01896 -0.0852,-0.03779 -0.1289,-0.05664 -5.81778,-3.95626 -9.79394,-9.843109 -13.64454,-15.6015621 -2.21453,-3.8814271 -4.92289,-7.87272634 -5.5957,-12.4042969 -0.10783,-0.7264447 -0.0806,-1.4678803 -0.12109,-2.2011719 0.14033,-0.4329369 0.23531,-0.8864293 0.35156,-1.3300781 z m 57.17578,0 c 1.39336,1.0239167 2.71427,2.1422144 3.97852,3.328125 -0.43173,-1.199601 -0.60021,-2.5331893 0.23047,-3.328125 z m -8.33398,5.8789062 c 0.24419,0.5341345 0.51468,1.0666512 0.79687,1.5917969 0.11084,-0.1231912 0.22604,-0.2374948 0.3457,-0.3417969 -0.38126,-0.4166338 -0.76247,-0.8322468 -1.14257,-1.25 z m 22.70507,38.0878908 c -0.022,0.01136 -0.0447,0.02152 -0.0664,0.0332 -0.004,0.107291 -0.0344,0.385637 -0.0274,0.417969 v 0.002 0.002 h 0.002 l 0.002,-0.002 c 0.002,-0.0035 0.005,-0.01149 0.008,-0.02344 0.0385,-0.140941 0.0639,-0.284278 0.082,-0.429687 z" />
  <text
     xml:space="preserve"
     style="font-size:70.3913px;writing-mode:lr-tb;direction:ltr;fill:#000000;stroke:#ffc4ff;stroke-width:5.86595;stroke-opacity:0"
     x="67.094955"
     y="310.08606"
     id="text2"
     transform="scale(0.99556555,1.0044542)"
     inkscape:label="text2"><tspan
       sodipodi:role="line"
       id="tspan2"
       x="67.094955"
       y="310.08606"
       style="stroke-width:5.86595">AppStore</tspan></text>
  <path
     id="rect3"
     style="fill:#cccccc;stroke:#ffc4ff;stroke-width:0.698075;stroke-opacity:0"
     d="m 1.4101562,-0.65039062 c -0.00456,0.0239449 -0.010537,0.0520706 -0.015625,0.0859375 -0.00234,0.0144689 -0.00543,0.0285056 -0.00781,0.0429687 0.011318,0.0424626 0.00579,0.0953281 0.015625,0.13867188 8.875e-4,0.0306334 -9.05e-5,0.0611873 0,0.0917969 0.01896,-0.0198564 0.048142,-0.047917 0.089844,-0.0917969 0.045178,-0.0393685 0.077244,-0.10234273 0.1347656,-0.11914062 0.070652,-0.0206321 0.1555572,-0.0205845 0.2207031,0.0136719 h 0.00195 l 0.00195,0.001953 c 9.608e-4,7.3327e-4 0.00497,0.005058 0.00586,0.005859 0.00882,0.009344 0.014754,0.0224664 0.017578,0.0371094 0.038802,-0.0695264 0.078113,-0.13842648 0.1191406,-0.20703124 z m 30.9433598,0 c 2.068322,0.78525511 3.514116,2.13990252 4.685546,4.22656252 0.857963,1.8419819 0.951198,3.5171881 0.59375,5.2050781 0.837461,0.2180108 1.650575,0.5083595 2.425782,0.9140625 0.484368,0.2534934 0.920908,0.5912085 1.380859,0.8867185 0.434453,0.555467 0.987516,1.035199 1.302735,1.666016 1.158051,2.317499 0.219726,5.038909 -1.222657,6.972656 -0.312952,0.419563 -0.679051,0.795437 -1.035156,1.179688 H 404.01562 c 3.92796,-4.285116 8.47959,-7.909291 13.19922,-11.3007816 0.0584,-0.1547241 0.12143,-0.3072224 0.1875,-0.4570313 -1.7162,-1.1029483 -3.37314,-2.2923361 -4.91992,-3.6269531 -0.66522,-0.5739785 -1.27053,-1.211863 -1.90625,-1.8183594 -1.0603,-1.1072051 -2.08875,-2.42350656 -2.79883,-3.84765622 z m -30.6875004,0.23242187 -0.00195,0.001953 c -0.00113,0.001015 -0.00485,0.004688 -0.00586,0.005859 l -0.00195,0.001953 v 0.001953 h -0.00195 v 0.001953 0.001953 0.001953 c 0.00279,0.005952 0.00705,0.0103917 0.011719,0.015625 0.00175,-0.0108522 0.00262,-0.0203748 0.00391,-0.03125 v -0.001953 h -0.00195 z m -0.042969,0.20117187 c -0.06587,0.0697108 -0.091914,0.0992162 -0.1015625,0.109375 0.01902,0.005159 0.038249,0.01057128 0.056641,0.01953126 0.015966,-0.04285883 0.031052,-0.08577972 0.044922,-0.12890626 z m -0.1933594,0.21484375 c -0.00739,0.0082124 -0.014854,0.01783389 -0.023437,0.02734376 -0.00479,0.0053059 -0.010567,0.0099365 -0.015625,0.01562499 -0.00131,0.018117 -0.00243,0.03657982 -0.00391,0.0546875 0.014146,-0.03253216 0.028502,-0.06524606 0.042969,-0.09765625 z M 21.994141,3.6132812 c 0.05806,0.039992 0.116113,0.080591 0.173828,0.1210938 C 22.283147,3.719034 22.398487,3.702786 22.513672,3.6875 22.340492,3.66331 22.167088,3.639019 21.994141,3.6132812 Z m 9.765625,2.65625 c -0.119007,0.5499845 -0.440918,1.0903849 -0.97461,1.546875 0.198361,0.022429 0.397429,0.043722 0.595703,0.066406 0.145778,0.019104 0.290684,0.037077 0.4375,0.054687 0.152339,-0.5034742 0.192289,-1.0209473 -0.02148,-1.5839844 -0.01232,-0.028422 -0.02434,-0.056395 -0.03711,-0.083984 z M 423.64453,13.113281 c -0.013,0.0091 -0.026,0.01832 -0.0391,0.02734 0.0738,0.494023 0.18147,0.957985 0.3457,1.404297 -0.12551,-0.471712 -0.2284,-0.94978 -0.30664,-1.431641 z m -388.509764,1.15625 c -0.04624,0.06639 -0.09368,0.13335 -0.140625,0.199219 0.527371,0.498232 0.990778,1.065949 1.402343,1.685547 0.04623,-0.04731 0.09313,-0.09472 0.136719,-0.144531 0.272231,-0.311111 0.387093,-0.751843 0.695313,-1.027344 0.138213,-0.12354 0.527952,0.636004 0.814453,0.46289 -0.689388,-0.655226 -1.754671,-0.984157 -2.908203,-1.175781 z m 382.474614,3.242188 c -1.20426,0.933179 -2.38532,1.893406 -3.53516,2.888672 h 5.24805 c -0.69729,-0.878622 -1.27349,-1.869774 -1.71289,-2.888672 z m -407.9277394,0.4375 c -0.7378725,0.03727 -1.474808,0.0731 -2.2128906,0.101562 0.5375599,0.637613 1.1121863,1.247039 1.7148438,1.830078 0.1906911,0.175213 0.381022,0.34891 0.5722656,0.519532 h 1.0175786 c -0.38783,-0.805424 -0.747657,-1.626226 -1.0917974,-2.451172 z m 21.3593754,0.871093 c -0.502587,0.378655 -1.008734,0.69929 -1.519532,0.960938 0.662396,-0.09829 1.308329,-0.255087 1.933594,-0.464844 -0.117975,-0.183469 -0.25494,-0.351213 -0.414062,-0.496094 z M 454.1875,20.042969 c 0.0502,0.119732 0.0995,0.239211 0.15234,0.357422 h 0.0723 c -0.034,-0.08082 -0.0697,-0.154409 -0.10156,-0.197266 -0.0402,-0.05415 -0.0811,-0.107411 -0.12305,-0.160156 z" />
  <ellipse
     style="fill:none;stroke:#ffc4ff;stroke-opacity:0"
     id="path3"
     cx="-0.44761944"
     cy="453.49533"
     rx="39.838104"
     ry="30.885721" />
  <ellipse
     style="display:inline;fill:none;stroke:#ffc4ff;stroke-opacity:0"
     id="path3-9"
     cx="450.49054"
     cy="448.43335"
     rx="39.838104"
     ry="30.885721" />
  <ellipse
     style="fill:#cccccc;stroke:#ffc4ff;stroke-width:1.22946;stroke-opacity:0"
     id="path4-8"
     cx="418.39999"
     cy="423.37582"
     rx="37.985271"
     ry="33.009087" />
  <ellipse
     style="fill:#cccccc;stroke:#ffc4ff;stroke-width:1.22148;stroke-opacity:0"
     id="path4"
     cx="36.602821"
     cy="423.38687"
     rx="37.489265"
     ry="33.013077" />
  <ellipse
     style="fill:none;stroke:#ffc4ff;stroke-opacity:0"
     id="path3-1-1"
     cx="451.2619"
     cy="7.2619271"
     rx="39.838104"
     ry="30.885721" />
  <ellipse
     style="fill:#cccccc;stroke:#ffc4ff;stroke-width:1.22148;stroke-opacity:0"
     id="path4-8-2"
     cx="418.89999"
     cy="32.623817"
     rx="37.489265"
     ry="33.013077" />
  <ellipse
     style="fill:none;stroke:#ffc4ff;stroke-opacity:0"
     id="path3-1"
     cx="-7.34761"
     cy="0.99525535"
     rx="39.838104"
     ry="30.885721" />
  <ellipse
     style="fill:#cccccc;stroke:#ffc4ff;stroke-width:1.22148;stroke-opacity:0"
     id="path4-8-2-5"
     cx="37.100006"
     cy="32.623817"
     rx="37.489265"
     ry="33.013077" />
  <rect
     style="fill:#cccccc;fill-opacity:0.188235;stroke:#000000;stroke-opacity:0"
     id="rect5"
     width="0.64086539"
     height="1.0986264"
     x="455.78125"
     y="37.159672" />
  <rect
     style="fill:#cccccc;fill-opacity:1;stroke:#000000;stroke-opacity:0"
     id="rect4"
     width="1.9774265"
     height="3.0132215"
     x="-0.70622373"
     y="415.02417" />
  <rect
     style="fill:#e6e6e6;fill-opacity:1;stroke:#000000;stroke-opacity:0"
     id="rect6"
     width="0.016645854"
     height="0.17061999"
     x="456.1713"
     y="37.544724" />
  <rect
     style="fill:#cccccc;fill-opacity:1;stroke:#000000;stroke-opacity:0"
     id="rect7"
     width="0.39891061"
     height="0.64987451"
     x="455.64453"
     y="37.292969" />
  <rect
     style="fill:#cccccc;fill-opacity:1;stroke:#000000;stroke-opacity:0"
     id="rect8"
     width="0.10967059"
     height="0.023886176"
     x="455.93378"
     y="37.730469" />
</svg>
